<?xml version="1.0" standalone="yes"?>
<svg xmlns="http://www.w3.org/2000/svg" width="302" height="244">
<path style="fill:#050101; stroke:none;" d="M0 0L0 244L302 244L302 0L0 0z"/>
<path style="fill:#d22a2a; stroke:none;" d="M205 225C209.714 225.698 212.653 223.737 217 222.242C226.908 218.832 237.127 213.07 243.034 204C245.98 199.476 246.414 194.333 248.793 189.715C252.436 182.644 257.617 176.525 260.467 169C274.593 131.7 273.162 91.8266 250.481 58C241.497 44.6026 229.813 33.0281 216 24.615C185.253 5.88803 145.643 1.11746 112 14.7569C50.8977 39.5286 19.3627 115.541 51.3094 175C56.5269 184.711 62.6538 192.522 69.5324 201C72.2322 204.328 74.0086 208.593 77.213 211.468C80.9558 214.826 85.6194 214.773 89.7407 217.124C94.5296 219.856 98.3283 224.444 103.285 227.109C119.713 235.938 140.762 238.029 159 238C170.525 237.981 182.143 235.053 193 231.306C197.382 229.793 202.313 228.952 205 225z"/>
<path style="fill:#050101; stroke:none;" d="M66 187C63.2151 178.202 56.8886 170.759 53.6952 162C44.2442 136.077 42.8074 107.765 53.8727 82C76.7753 28.6715 137.277 0.399887 192 21.1921C200.087 24.2648 207.875 27.7832 215 32.7708C226.591 40.8851 237.029 51.2374 244.91 63C262.747 89.6192 267.482 122.448 258.28 153C255.966 160.684 253.053 167.983 249.138 175C246.633 179.489 242.68 183.731 243 189C252.795 180.276 257.915 165.313 261.363 153C272.357 113.742 261.413 72.2874 232.91 43.0394C185.847 -5.25558 101.805 3.86992 63.7207 58C43.1753 87.2014 37.4584 125.289 49.5864 159C52.8782 168.15 56.6678 182.413 66 187M73 179C82.9334 175.152 87.9269 164.568 97 159.367C102.293 156.332 107.157 156.278 113 157C109.019 146.48 98.8044 135.509 109.108 125.105C113.949 120.216 120.707 118.559 125 113C119.817 114.482 114.981 116.957 110 119C112.89 102.735 124.965 85.4569 138 75.7608C142.623 72.3224 148.944 67.7469 155 68.713C160.64 69.6127 165.47 73.048 170 76.2978C184.25 86.5207 192.489 102.711 198 119C192.033 117.936 187.557 114.103 182 112C186.492 118.242 193.494 120.049 198.66 125.329C208.627 135.516 198.987 147.909 193 157C196.283 156.585 199.684 155.708 203 156.268C210.423 157.522 215.631 163.914 221 168.576C223.912 171.104 230.476 179.91 234.79 178.654C237.353 177.908 239.024 174.068 240.316 172C244.772 164.865 247.433 157.076 249.64 149C258.473 116.674 250.979 80.892 227.91 56C188.097 13.0408 117.743 13.1489 79.3002 58C71.9094 66.6227 65.3897 77.3499 61.3727 88C49.8205 118.627 56.3492 151.892 73 179M146 79L163 79C157.696 74.7199 150.665 73.3989 146 79M127 127C135.031 123.656 146.083 114.408 155 115.256C163.552 116.07 170.792 123.635 179 126C174.619 119.798 168.399 115.406 162 111.425C159.646 109.961 156.874 107.835 154 107.693C150.75 107.532 147.59 110.028 145 111.692C138.393 115.936 131.586 120.544 127 127z"/>
<path style="fill:#d22a2a; stroke:none;" d="M198 119L199 120L198 119z"/>
<path style="fill:#050101; stroke:none;" d="M117 150C118.062 148.307 118.52 146.96 119 145C125.222 149.58 129.595 156.482 135 162L128 160C133.208 167.374 146.107 178.501 156 176.721C165.118 175.082 173.239 166.736 180 161C177.956 160.226 177.155 160.408 175 161C178.685 155.102 183.834 150.202 187 144C188.455 146.351 189.322 148.322 190 151C194.627 139.969 183.207 134.462 175 130.691C168.831 127.857 161.82 123.068 155 122.228C150.501 121.675 146.002 123.881 142 125.664C132.38 129.951 113.123 136.37 117 150z"/>
<path style="fill:#d22a2a; stroke:none;" d="M280 213L281 214L280 213M268 216L269 217L268 216M28 221L29 222L28 221M11 223L10 226C11.7662 225.021 11.9554 224.778 11 223M294 224L295 225L294 224M253 225C251.55 226.608 250.949 227.064 249 228C252.137 229.001 253.487 227.756 255 225L253 225z"/>
<path style="fill:#050101; stroke:none;" d="M122 228C126.418 231.621 132.52 231.677 138 232.424C149.302 233.963 160.683 234.21 172 232.572C177.451 231.782 182.554 229.737 188 229C180.171 225.715 170.132 230.353 162 230.91C148.367 231.845 135.457 228.037 122 228z"/>
<path style="fill:#d22a2a; stroke:none;" d="M294 231C296.092 230.594 296.02 230.783 297 229C295.42 229.684 295.223 229.805 294 231M301 231C300.598 232.944 300.598 233.056 301 235C301.71 233.24 301.71 232.76 301 231z"/>
</svg>
